<?xml version="1.0" standalone="no"?>
<!DOCTYPE svg PUBLIC "-//W3C//DTD SVG 20010904//EN"
 "http://www.w3.org/TR/2001/REC-SVG-20010904/DTD/svg10.dtd">
<svg version="1.0" xmlns="http://www.w3.org/2000/svg"
 width="400.000000pt" height="400.000000pt" viewBox="0 0 400.000000 400.000000"
 preserveAspectRatio="xMidYMid meet">
<metadata>
Created by potrace 1.14, written by Peter Selinger 2001-2017
</metadata>
<g transform="translate(0.000000,400.000000) scale(0.100000,-0.100000)"
fill="#000000" stroke="none">
<path d="M3247 3232 l-748 -748 88 19 c64 14 145 20 298 24 221 6 337 -5 506
-45 l75 -18 35 64 c19 35 42 68 52 74 13 7 38 2 90 -18 103 -38 249 -112 269
-135 17 -20 16 -24 -17 -89 l-34 -68 67 -50 67 -51 3 450 c1 248 1 650 0 895
l-3 444 -748 -748z"/>
<path d="M110 3725 c0 -3 68 -115 150 -250 l150 -246 0 -601 0 -601 -145 -237
c-80 -131 -148 -245 -151 -254 -6 -15 52 -16 682 -16 l689 0 583 583 584 584
-4 359 c-4 344 -5 361 -26 416 -43 107 -123 184 -232 223 -123 44 -138 45
-1236 45 -574 0 -1044 -2 -1044 -5z m1508 -267 l142 -232 0 -598 0 -598 -139
-227 c-76 -125 -143 -229 -148 -230 -4 -2 -70 98 -146 221 l-137 224 0 610 0
611 53 84 c28 46 90 148 137 225 47 78 87 141 90 142 3 0 69 -105 148 -232z"/>
<path d="M2821 2092 c2 -5 108 -127 234 -270 l230 -259 6 146 c4 80 14 191 23
245 9 54 15 100 14 102 -26 25 -516 61 -507 36z"/>
<path d="M3930 1815 c-80 -80 -96 -82 -145 -15 -20 28 -40 50 -44 50 -10 0
-21 -125 -21 -225 0 -100 11 -225 21 -225 4 0 24 23 44 50 24 33 44 50 58 50
13 0 48 -26 89 -67 l68 -67 0 257 c0 141 -1 257 -3 257 -1 0 -32 -29 -67 -65z"/>
<path d="M2111 1815 c-101 -116 -101 -264 0 -380 l34 -38 6 29 c4 16 7 106 7
199 0 94 -3 183 -7 199 l-6 29 -34 -38z"/>
<path d="M2595 1563 c-4 -65 -14 -174 -24 -242 l-17 -123 24 -9 c48 -19 263
-40 376 -37 l117 3 -227 255 c-124 140 -229 259 -234 263 -4 5 -11 -44 -15
-110z"/>
<path d="M805 790 l-790 -790 1993 0 1992 0 0 531 0 531 -37 -28 c-21 -15 -53
-39 -71 -52 l-32 -24 35 -66 c44 -84 40 -91 -89 -155 -189 -93 -272 -115 -298
-79 -7 10 -32 40 -55 66 l-41 47 -114 -23 c-100 -20 -141 -23 -363 -23 -234 1
-258 2 -377 28 -70 15 -132 27 -138 27 -5 0 -23 -26 -39 -58 -43 -86 -48 -88
-125 -62 -101 33 -290 132 -294 153 -2 10 11 47 30 83 31 62 32 66 14 76 -50
28 -177 141 -229 203 -73 87 -142 226 -163 325 -8 41 -16 76 -18 77 -1 1 -357
-353 -791 -787z"/>
</g>
</svg>
